<mxfile host="app.diagrams.net" modified="2021-02-26T11:23:23.566Z" agent="5.0 (Windows NT 10.0; Win64; x64) AppleWebKit/537.36 (KHTML, like Gecko) Chrome/88.0.4324.182 Safari/537.36" etag="uqAFY1NFVsZC1IPZMRMb" version="14.4.3" type="github">
  <diagram id="9CtJTlgTri6wb86SSgRg" name="Page-1">
    <mxGraphModel dx="782" dy="435" grid="1" gridSize="10" guides="1" tooltips="1" connect="1" arrows="1" fold="1" page="1" pageScale="1" pageWidth="827" pageHeight="1169" math="0" shadow="0">
      <root>
        <mxCell id="0" />
        <mxCell id="1" parent="0" />
        <mxCell id="FD8MPJQXOJuNh6tsuXMW-1" value="" style="rounded=1;whiteSpace=wrap;html=1;absoluteArcSize=1;arcSize=14;strokeWidth=2;" vertex="1" parent="1">
          <mxGeometry x="30" y="300" width="200" height="160" as="geometry" />
        </mxCell>
        <mxCell id="-JJaQs0zwunT7kPvXRzf-11" style="edgeStyle=orthogonalEdgeStyle;rounded=0;orthogonalLoop=1;jettySize=auto;html=1;entryX=0.5;entryY=0;entryDx=0;entryDy=0;endArrow=block;endFill=1;startArrow=block;startFill=1;" parent="1" source="-JJaQs0zwunT7kPvXRzf-5" target="-JJaQs0zwunT7kPvXRzf-8" edge="1">
          <mxGeometry relative="1" as="geometry" />
        </mxCell>
        <mxCell id="-JJaQs0zwunT7kPvXRzf-5" value="Talent Microservice" style="rounded=1;whiteSpace=wrap;html=1;absoluteArcSize=1;arcSize=14;strokeWidth=2;" parent="1" vertex="1">
          <mxGeometry x="110" y="320" width="100" height="40" as="geometry" />
        </mxCell>
        <mxCell id="-JJaQs0zwunT7kPvXRzf-7" value="Redis Cache" style="shape=datastore;whiteSpace=wrap;html=1;" parent="1" vertex="1">
          <mxGeometry x="330" y="580" width="130" height="80" as="geometry" />
        </mxCell>
        <mxCell id="-JJaQs0zwunT7kPvXRzf-10" value="" style="edgeStyle=orthogonalEdgeStyle;rounded=0;orthogonalLoop=1;jettySize=auto;html=1;startArrow=block;startFill=1;endArrow=block;endFill=1;" parent="1" source="-JJaQs0zwunT7kPvXRzf-8" target="-JJaQs0zwunT7kPvXRzf-7" edge="1">
          <mxGeometry relative="1" as="geometry" />
        </mxCell>
        <mxCell id="-JJaQs0zwunT7kPvXRzf-8" value="Cache Service" style="label;whiteSpace=wrap;html=1;image=img/clipart/Gear_128x128.png" parent="1" vertex="1">
          <mxGeometry x="340" y="391" width="110" height="40" as="geometry" />
        </mxCell>
        <mxCell id="FD8MPJQXOJuNh6tsuXMW-2" value="&lt;br&gt;Talent MS Database" style="strokeWidth=2;html=1;shape=mxgraph.flowchart.database;whiteSpace=wrap;" vertex="1" parent="1">
          <mxGeometry x="50" y="380" width="70" height="70" as="geometry" />
        </mxCell>
        <mxCell id="FD8MPJQXOJuNh6tsuXMW-15" style="edgeStyle=orthogonalEdgeStyle;rounded=0;sketch=0;orthogonalLoop=1;jettySize=auto;html=1;exitX=0;exitY=0.5;exitDx=0;exitDy=0;entryX=1;entryY=0.5;entryDx=0;entryDy=0;startArrow=block;startFill=1;endArrow=block;endFill=1;" edge="1" parent="1" source="FD8MPJQXOJuNh6tsuXMW-4" target="-JJaQs0zwunT7kPvXRzf-8">
          <mxGeometry relative="1" as="geometry">
            <Array as="points">
              <mxPoint x="600" y="320" />
              <mxPoint x="600" y="411" />
            </Array>
          </mxGeometry>
        </mxCell>
        <mxCell id="FD8MPJQXOJuNh6tsuXMW-4" value="" style="rounded=1;whiteSpace=wrap;html=1;absoluteArcSize=1;arcSize=14;strokeWidth=2;" vertex="1" parent="1">
          <mxGeometry x="624" y="240" width="200" height="160" as="geometry" />
        </mxCell>
        <mxCell id="FD8MPJQXOJuNh6tsuXMW-5" value="UserPII Microservice" style="rounded=1;whiteSpace=wrap;html=1;absoluteArcSize=1;arcSize=14;strokeWidth=2;" vertex="1" parent="1">
          <mxGeometry x="705" y="260" width="100" height="40" as="geometry" />
        </mxCell>
        <mxCell id="FD8MPJQXOJuNh6tsuXMW-6" value="&lt;br&gt;User PII MS Database" style="strokeWidth=2;html=1;shape=mxgraph.flowchart.database;whiteSpace=wrap;" vertex="1" parent="1">
          <mxGeometry x="645" y="310" width="70" height="70" as="geometry" />
        </mxCell>
        <mxCell id="FD8MPJQXOJuNh6tsuXMW-16" style="edgeStyle=orthogonalEdgeStyle;rounded=0;sketch=0;orthogonalLoop=1;jettySize=auto;html=1;startArrow=block;startFill=1;endArrow=block;endFill=1;entryX=1;entryY=0.5;entryDx=0;entryDy=0;" edge="1" parent="1" source="FD8MPJQXOJuNh6tsuXMW-7" target="-JJaQs0zwunT7kPvXRzf-8">
          <mxGeometry relative="1" as="geometry">
            <mxPoint x="460" y="410" as="targetPoint" />
            <Array as="points">
              <mxPoint x="600" y="511" />
              <mxPoint x="600" y="411" />
            </Array>
          </mxGeometry>
        </mxCell>
        <mxCell id="FD8MPJQXOJuNh6tsuXMW-7" value="" style="rounded=1;whiteSpace=wrap;html=1;absoluteArcSize=1;arcSize=14;strokeWidth=2;" vertex="1" parent="1">
          <mxGeometry x="625" y="431" width="200" height="160" as="geometry" />
        </mxCell>
        <mxCell id="FD8MPJQXOJuNh6tsuXMW-8" value="Company Microservice" style="rounded=1;whiteSpace=wrap;html=1;absoluteArcSize=1;arcSize=14;strokeWidth=2;" vertex="1" parent="1">
          <mxGeometry x="705" y="451" width="100" height="40" as="geometry" />
        </mxCell>
        <mxCell id="FD8MPJQXOJuNh6tsuXMW-9" value="&lt;br&gt;Company MS Database" style="strokeWidth=2;html=1;shape=mxgraph.flowchart.database;whiteSpace=wrap;" vertex="1" parent="1">
          <mxGeometry x="645" y="511" width="70" height="70" as="geometry" />
        </mxCell>
        <mxCell id="FD8MPJQXOJuNh6tsuXMW-10" value="" style="rounded=1;whiteSpace=wrap;html=1;absoluteArcSize=1;arcSize=14;strokeWidth=2;" vertex="1" parent="1">
          <mxGeometry x="625" y="620" width="200" height="160" as="geometry" />
        </mxCell>
        <mxCell id="FD8MPJQXOJuNh6tsuXMW-11" value="Job Microservice" style="rounded=1;whiteSpace=wrap;html=1;absoluteArcSize=1;arcSize=14;strokeWidth=2;" vertex="1" parent="1">
          <mxGeometry x="705" y="640" width="100" height="40" as="geometry" />
        </mxCell>
        <mxCell id="FD8MPJQXOJuNh6tsuXMW-12" value="&lt;br&gt;Job MS Database" style="strokeWidth=2;html=1;shape=mxgraph.flowchart.database;whiteSpace=wrap;" vertex="1" parent="1">
          <mxGeometry x="645" y="700" width="70" height="70" as="geometry" />
        </mxCell>
        <mxCell id="FD8MPJQXOJuNh6tsuXMW-14" style="edgeStyle=orthogonalEdgeStyle;rounded=0;sketch=0;orthogonalLoop=1;jettySize=auto;html=1;startArrow=block;startFill=1;endArrow=block;endFill=1;exitX=1;exitY=0.5;exitDx=0;exitDy=0;entryX=0;entryY=0.5;entryDx=0;entryDy=0;" edge="1" parent="1" source="-JJaQs0zwunT7kPvXRzf-8" target="FD8MPJQXOJuNh6tsuXMW-10">
          <mxGeometry relative="1" as="geometry">
            <mxPoint x="485" y="640" as="targetPoint" />
            <mxPoint x="470" y="403" as="sourcePoint" />
            <Array as="points">
              <mxPoint x="600" y="411" />
              <mxPoint x="600" y="700" />
            </Array>
          </mxGeometry>
        </mxCell>
        <mxCell id="FD8MPJQXOJuNh6tsuXMW-21" value="MS Specific&lt;br&gt;&amp;nbsp;Master Data" style="shape=parallelogram;html=1;strokeWidth=2;perimeter=parallelogramPerimeter;whiteSpace=wrap;rounded=1;arcSize=12;size=0.23;" vertex="1" parent="1">
          <mxGeometry x="210" y="610" width="110" height="70" as="geometry" />
        </mxCell>
      </root>
    </mxGraphModel>
  </diagram>
</mxfile>
